<svg width="40" height="40" viewBox="0 0 40 40" fill="none" xmlns="http://www.w3.org/2000/svg">
<rect width="40" height="40" rx="20" fill="#FF9900"/>
<path d="M28.2034 17.795C28.5565 15.4309 26.7565 14.16 24.2953 13.3122L25.0937 10.1097L23.1438 9.62391L22.3665 12.742C21.8546 12.6143 21.3282 12.4938 20.8052 12.3744L21.5881 9.23581L19.6398 8.75L18.8409 11.9514C18.4167 11.8548 18.0003 11.7593 17.5961 11.6588L17.5983 11.6488L14.91 10.9775L14.3914 13.0596C14.3914 13.0596 15.8377 13.391 15.8072 13.4116C16.5967 13.6087 16.7399 14.1311 16.7155 14.5453L15.8061 18.1936C15.8605 18.2075 15.931 18.2275 16.0087 18.2586L15.8033 18.2075L14.528 23.3182C14.4314 23.5581 14.1865 23.9179 13.6346 23.7813C13.6541 23.8096 12.2177 23.4276 12.2177 23.4276L11.25 25.6596L13.7873 26.2919C14.2593 26.4102 14.7217 26.534 15.1765 26.6506L14.3697 29.8903L16.3169 30.3761L17.1164 27.1714C17.6477 27.3158 18.1641 27.449 18.6693 27.5745L17.8731 30.7642L19.8225 31.25L20.6292 28.017C23.9533 28.6461 26.4534 28.3923 27.5044 25.3864C28.3522 22.9657 27.4628 21.5693 25.7139 20.6582C26.9875 20.3634 27.9475 19.5256 28.2034 17.795ZM23.749 24.0406C23.146 26.4613 19.0707 25.1532 17.7488 24.8245L18.8192 20.5333C20.1406 20.8631 24.3769 21.516 23.749 24.0406ZM24.3514 17.76C23.8017 19.962 20.4093 18.8432 19.3084 18.5689L20.2789 14.6769C21.3799 14.9512 24.9243 15.4631 24.3514 17.76Z" fill="white"/>
</svg>
