<svg width="18" height="18" viewBox="0 0 18 18" fill="none" xmlns="http://www.w3.org/2000/svg">
<path d="M14.625 18H2.25C1.65326 18 1.08097 17.7629 0.65901 17.341C0.237053 16.919 0 16.3467 0 15.75V3.375C0 2.77826 0.237053 2.20597 0.65901 1.78401C1.08097 1.36205 1.65326 1.125 2.25 1.125H6.75V3.375H2.25V15.75H14.625V11.25H16.875V15.75C16.875 16.3467 16.6379 16.919 16.216 17.341C15.794 17.7629 15.2217 18 14.625 18ZM8.6625 10.9204L7.07625 9.32963L14.1559 2.25H10.125V0H18V7.875H15.75V3.84188L8.6625 10.9204Z" fill="black"/>
</svg>
