<svg width="22" height="22" viewBox="0 0 22 22" fill="none" xmlns="http://www.w3.org/2000/svg">
<path d="M22.0001 19.8611L17.5187 15.3796C18.6391 13.75 19.3518 11.8148 19.3518 9.67593C19.3518 4.37965 14.9722 0 9.67592 0C4.37963 0 0 4.37965 0 9.67593C0 14.9722 4.37963 19.3519 9.67592 19.3519C11.8148 19.3519 13.7501 18.6389 15.3797 17.5185L19.8611 22L22.0001 19.8611ZM3.05555 9.77778C3.05555 6.11112 6.00926 3.15741 9.67592 3.15741C13.3426 3.15741 16.2963 6.11112 16.2963 9.77778C16.2963 13.4444 13.3426 16.3981 9.67592 16.3981C6.00926 16.3981 3.05555 13.4444 3.05555 9.77778Z" fill="black" fill-opacity="0.95"/>
</svg>
