<svg width="40" height="40" viewBox="0 0 40 40" fill="none" xmlns="http://www.w3.org/2000/svg">
<rect width="40" height="40" fill="#3EC1BD"/>
<path d="M11.0213 25.4142C11.1811 25.2547 11.4008 25.1616 11.6338 25.1616H32.7672C33.1534 25.1616 33.3465 25.6269 33.0735 25.8995L28.8988 30.0674C28.739 30.2269 28.5193 30.32 28.2862 30.32H7.15282C6.76664 30.32 6.57355 29.8547 6.84654 29.5821L11.0213 25.4142Z" fill="white"/>
<path d="M11.0213 9.85261C11.1877 9.69307 11.4075 9.60001 11.6338 9.60001H32.7672C33.1534 9.60001 33.3465 10.0653 33.0735 10.3379L28.8988 14.5058C28.739 14.6653 28.5193 14.7584 28.2862 14.7584H7.15282C6.76664 14.7584 6.57355 14.2931 6.84654 14.0205L11.0213 9.85261Z" fill="white"/>
<path d="M28.8988 17.5835C28.739 17.424 28.5193 17.3309 28.2862 17.3309H7.15282C6.76664 17.3309 6.57355 17.7963 6.84654 18.0688L11.0213 22.2367C11.1811 22.3963 11.4008 22.4893 11.6338 22.4893H32.7672C33.1534 22.4893 33.3465 22.024 33.0735 21.7515L28.8988 17.5835Z" fill="white"/>
</svg>
