<svg width="412" height="560" viewBox="0 0 412 560" fill="none" xmlns="http://www.w3.org/2000/svg">
<g filter="url(#filter0_d_402_3)">
<path d="M265.65 560C225.69 560 196.523 550.375 178.149 531.125C161.128 514.83 151.251 492.459 150.676 468.902C150.469 461.746 152.128 454.659 155.489 448.337C158.624 442.875 163.152 438.343 168.612 435.204C174.957 432.039 181.952 430.392 189.043 430.392C196.134 430.392 203.129 432.039 209.474 435.204C214.924 438.331 219.432 442.868 222.524 448.337C225.982 454.628 227.702 461.727 227.508 468.902C227.865 477.472 225.407 485.924 220.509 492.965C216.427 498.713 210.591 502.983 203.878 505.136C210.443 513.494 219.732 519.285 230.127 521.5C241.758 524.878 253.803 526.614 265.914 526.66C281.948 526.8 297.652 522.104 310.978 513.186C324.801 503.42 335.11 489.459 340.377 473.374C347.053 454.23 350.311 434.061 350.002 413.788C350.54 392.653 346.974 371.614 339.501 351.837C333.881 336.019 323.211 322.49 309.139 313.336C296.059 305.059 280.876 300.716 265.397 300.825C251.909 301.968 238.904 306.383 227.508 313.688L199.413 327.774V313.688L325.675 144.306H150.676V320.075C150.182 332.759 153.537 345.296 160.301 356.038C163.574 360.718 168 364.475 173.151 366.942C178.301 369.41 184.002 370.506 189.7 370.124C200.229 369.911 210.412 366.322 218.748 359.887C228.197 352.962 236.42 344.503 243.074 334.861C243.673 333.17 244.778 331.705 246.238 330.664C247.41 329.65 248.907 329.092 250.457 329.089C253.497 329.366 256.374 330.59 258.683 332.587C261.607 335.855 263.199 340.101 263.144 344.486C262.806 347.433 262.28 350.356 261.569 353.236C255.352 368.283 244.932 381.22 231.555 390.499C219.13 398.906 204.456 403.364 189.454 403.288C151.566 403.288 125.317 395.821 110.71 380.888C103.202 372.634 97.415 362.966 93.6889 352.448C89.9627 341.931 88.3719 330.776 89.0094 319.636V144.306H0V111.648H89.4242V37.1857L68.9507 16.6981V0H128.361L150.676 11.5515V111.648L381.848 110.945L404.863 134.045L263.112 276.485C271.676 273.041 280.694 270.859 289.885 270.009C308.076 270.806 325.824 275.872 341.695 284.799C360.073 293.534 375.56 307.355 386.323 324.624C395.966 339.243 402.791 355.535 406.448 372.662C409.455 386.171 411.067 399.953 411.261 413.792C411.354 440.202 405.367 466.278 393.761 490.002C382.755 512.974 364.232 531.498 341.259 542.504C317.744 554.091 291.865 560.08 265.65 560Z" fill="#2C7DF7"/>
</g>
<defs>
<filter id="filter0_d_402_3" x="-4" y="0" width="419.262" height="568.001" filterUnits="userSpaceOnUse" color-interpolation-filters="sRGB">
<feFlood flood-opacity="0" result="BackgroundImageFix"/>
<feColorMatrix in="SourceAlpha" type="matrix" values="0 0 0 0 0 0 0 0 0 0 0 0 0 0 0 0 0 0 127 0" result="hardAlpha"/>
<feOffset dy="4"/>
<feGaussianBlur stdDeviation="2"/>
<feComposite in2="hardAlpha" operator="out"/>
<feColorMatrix type="matrix" values="0 0 0 0 0 0 0 0 0 0 0 0 0 0 0 0 0 0 0.25 0"/>
<feBlend mode="normal" in2="BackgroundImageFix" result="effect1_dropShadow_402_3"/>
<feBlend mode="normal" in="SourceGraphic" in2="effect1_dropShadow_402_3" result="shape"/>
</filter>
</defs>
</svg>
